# Blender v2.91.0 OBJ File: 'level.blend'
# www.blender.org
mtllib gratingstuff_building.mtl
o gratingstuff_building_entity2_brush1
v 16.974621 16.461813 -34.532543
v 16.527523 8.167459 -27.321177
v 16.504637 8.248787 -27.229052
v 16.951735 16.543142 -34.440418
v 19.942535 8.564036 -26.653313
v 19.965420 8.482708 -26.745438
v 20.412518 16.777061 -33.956802
v 20.389633 16.858391 -33.864677
v 15.545265 8.077387 -27.485674
v 15.504620 7.323355 -26.830095
v 15.481735 7.404684 -26.737970
v 15.522380 8.158716 -27.393549
v 19.901890 7.810004 -25.997734
v 19.924774 7.728675 -26.089859
v 19.965420 8.482708 -26.745438
v 19.942535 8.564036 -26.653313
v 19.800095 9.968701 -26.571899
v 19.906969 7.904258 -26.079681
v 19.901890 7.810004 -25.997734
v 19.777210 10.050030 -26.479776
v 20.759466 10.140101 -26.315279
v 20.884146 7.900075 -25.833239
v 20.889227 7.994329 -25.915186
v 20.782352 10.058772 -26.407404
v 20.412518 16.777061 -33.956802
v 19.929855 7.822929 -26.171806
v 19.906969 7.904258 -26.079681
v 20.389633 16.858391 -33.864677
v 20.889227 7.994329 -25.915186
v 20.912111 7.913000 -26.007309
v 21.394775 16.867134 -33.792305
v 21.371889 16.948463 -33.700180
v 20.947678 8.572779 -26.580940
v 20.907032 7.818747 -25.925362
v 20.884146 7.900075 -25.833239
v 20.924791 8.654108 -26.488817
v 25.304300 8.305395 -25.093002
v 25.327187 8.224066 -25.185127
v 25.367832 8.978098 -25.840706
v 25.344946 9.059427 -25.748581
v 21.394775 16.867134 -33.792305
v 20.947678 8.572779 -26.580940
v 20.924791 8.654108 -26.488817
v 21.371889 16.948463 -33.700180
v 24.362690 8.969357 -25.913078
v 24.385574 8.888027 -26.005201
v 24.832672 17.182383 -33.216568
v 24.809788 17.263712 -33.124443
v 20.944933 13.074902 -29.029718
v 20.782352 10.058772 -26.407404
v 20.759466 10.140101 -26.315279
v 20.922047 13.156231 -28.937593
v 22.723980 10.320244 -25.986286
v 22.746864 10.238914 -26.078409
v 23.258316 10.660966 -26.323950
v 22.909447 13.255043 -28.700724
v 23.375172 12.828809 -28.208738
v 23.352285 12.910138 -28.116615
v 22.886560 13.336372 -28.608601
v 23.235430 10.742295 -26.231827
v 20.043966 14.492895 -30.505371
v 19.800095 9.968701 -26.571899
v 19.777210 10.050030 -26.479776
v 20.021082 14.574224 -30.413248
v 20.759466 10.140101 -26.315279
v 20.782352 10.058772 -26.407404
v 21.026224 14.582966 -30.340876
v 21.003338 14.664295 -30.248751
v 17.463827 12.463965 -29.185543
v 17.486712 12.382636 -29.277668
v 17.364777 10.120540 -27.310932
v 17.341890 10.201868 -27.218807
v 17.835583 9.788559 -26.900894
v 17.812696 9.869888 -26.808769
v 17.998163 12.804688 -29.523209
v 17.975277 12.886017 -29.431084
v 19.777210 10.050030 -26.479776
v 19.800095 9.968701 -26.571899
v 19.962677 12.984830 -29.194214
v 19.939791 13.066159 -29.102091
v 18.656954 15.960107 -32.145222
v 18.570581 14.357788 -30.752117
v 18.547697 14.439117 -30.659992
v 18.634068 16.041435 -32.053097
v 22.476723 14.799401 -30.002007
v 22.499609 14.718073 -30.094130
v 22.585979 16.320391 -31.487234
v 22.563093 16.401720 -31.395111
v 19.929855 7.822929 -26.171806
v 19.924774 7.728675 -26.089859
v 19.901890 7.810004 -25.997734
v 19.906969 7.904258 -26.079681
v 20.884146 7.900075 -25.833239
v 20.907032 7.818747 -25.925362
v 20.912111 7.913000 -26.007309
v 20.889227 7.994329 -25.915186
vt -3.000000 -1.125000
vt 8.000000 -1.000000
vt 8.000000 -1.125000
vt -4.000000 -1.000000
vt -0.500000 -1.125000
vt -0.500000 -1.000000
vt -4.000000 -3.000000
vt -0.500000 8.000000
vt -0.500000 -3.000000
vt -4.000000 8.000000
vt -0.500000 -3.000000
vt -0.500000 8.000000
vt -4.000000 -1.125000
vt -0.500000 -1.000000
vt -0.500000 -1.125000
vt -3.000000 -1.000000
vt 8.000000 -1.125000
vt 8.000000 -1.000000
vt -4.000000 -1.125000
vt -3.000000 -1.000000
vt -3.000000 -1.125000
vt -5.000000 -1.000000
vt -0.500000 -1.125000
vt -0.500000 -1.000000
vt -5.000000 -4.000000
vt -0.500000 -3.000000
vt -0.500000 -4.000000
vt -5.000000 -3.000000
vt -0.500000 -4.000000
vt -0.500000 -3.000000
vt -5.000000 -1.125000
vt -0.500000 -1.000000
vt -0.500000 -1.125000
vt -4.000000 -1.000000
vt -3.000000 -1.125000
vt -3.000000 -1.000000
vt -3.875000 -1.125000
vt -2.000000 -0.000000
vt -2.000000 -0.125000
vt -0.500000 -2.000000
vt 0.500000 -4.000000
vt 0.500000 -2.000000
vt -0.500000 -4.000000
vt 0.500000 -3.875000
vt -0.500000 -3.875000
vt 0.500000 -2.000000
vt -0.500000 -0.125000
vt 0.500000 -0.000000
vt 0.500000 -0.125000
vt -2.000000 -0.000000
vt -3.875000 -1.125000
vt -2.000000 -0.125000
vt -3.875000 -1.125000
vt 8.000000 -1.000000
vt 8.000000 -1.125000
vt -0.500000 -1.000000
vt 0.500000 -1.125000
vt 0.500000 -1.000000
vt -0.500000 -3.875000
vt 0.500000 8.000000
vt 0.500000 -3.875000
vt -0.500000 8.000000
vt 0.500000 -3.875000
vt 0.500000 8.000000
vt -0.500000 -1.125000
vt 0.500000 -1.000000
vt 0.500000 -1.125000
vt -3.875000 -1.000000
vt 8.000000 -1.125000
vt 8.000000 -1.000000
vt -4.000000 -1.125000
vt -3.000000 -1.000000
vt -3.000000 -1.125000
vt 0.500000 -1.000000
vt 5.000000 -1.125000
vt 5.000000 -1.000000
vt 0.500000 -4.000000
vt 5.000000 -3.000000
vt 5.000000 -4.000000
vt 0.500000 -3.000000
vt 5.000000 -4.000000
vt 5.000000 -3.000000
vt 0.500000 -1.125000
vt 5.000000 -1.000000
vt 5.000000 -1.125000
vt -4.000000 -1.000000
vt -3.000000 -1.125000
vt -3.000000 -1.000000
vt -3.000000 -1.125000
vt 8.000000 -1.000000
vt 8.000000 -1.125000
vt 0.500000 -1.000000
vt 4.000000 -1.125000
vt 4.000000 -1.000000
vt 0.500000 -3.000000
vt 4.000000 8.000000
vt 4.000000 -3.000000
vt 0.500000 8.000000
vt 4.000000 -3.000000
vt 4.000000 8.000000
vt 0.500000 -1.125000
vt 4.000000 -1.000000
vt 4.000000 -1.125000
vt -3.000000 -1.000000
vt 8.000000 -1.125000
vt 8.000000 -1.000000
vt -2.000000 -0.125000
vt 2.000000 -0.000000
vt 2.000000 -0.125000
vt 0.500000 -0.000000
vt 2.500000 -0.125000
vt 2.500000 -0.000000
vt 0.500000 2.000000
vt 2.500000 2.000000
vt 3.000000 1.375000
vt 0.500000 -2.000000
vt 2.500000 -2.000000
vt 3.000000 -1.500000
vt 0.500000 -0.125000
vt 2.500000 -0.000000
vt 2.500000 -0.125000
vt -2.000000 -0.000000
vt -1.500000 -0.125000
vt -1.500000 -0.000000
vt 2.000000 -0.125000
vt 1.375000 -0.000000
vt 1.375000 -0.125000
vt -2.000000 -0.125000
vt 4.000000 -0.000000
vt 4.000000 -0.125000
vt -0.500000 -0.000000
vt 0.500000 -0.125000
vt 0.500000 -0.000000
vt -0.500000 -2.000000
vt 0.500000 4.000000
vt 0.500000 -2.000000
vt -0.500000 4.000000
vt 0.500000 -2.000000
vt 0.500000 4.000000
vt -0.500000 -0.125000
vt 0.500000 -0.000000
vt 0.500000 -0.125000
vt -2.000000 -0.000000
vt 4.000000 -0.125000
vt 4.000000 -0.000000
vt 1.500000 -0.125000
vt -1.500000 -0.000000
vt 1.500000 -0.000000
vt -1.500000 -0.125000
vt -2.000000 -0.000000
vt 2.000000 -0.000000
vt 2.000000 -0.125000
vt -2.500000 -0.000000
vt -0.500000 -0.125000
vt -0.500000 -0.000000
vt -3.000000 1.500000
vt -2.500000 2.000000
vt -0.500000 2.000000
vt -3.000000 -1.500000
vt -2.500000 -2.000000
vt -0.500000 -2.000000
vt -2.500000 -0.125000
vt -0.500000 -0.000000
vt -0.500000 -0.125000
vt -2.000000 -0.000000
vt 2.000000 -0.125000
vt 2.000000 -0.000000
vt 4.000000 -0.000000
vt 6.125000 0.125000
vt 6.125000 -0.000000
vt -2.000000 0.125000
vt 2.000000 -0.000000
vt 2.000000 0.125000
vt -2.000000 4.000000
vt 2.000000 6.125000
vt 2.000000 4.000000
vt -2.000000 6.125000
vt 2.000000 4.000000
vt 2.000000 6.125000
vt -2.000000 -0.000000
vt 2.000000 0.125000
vt 2.000000 -0.000000
vt 4.000000 0.125000
vt 6.125000 -0.000000
vt 6.125000 0.125000
vt -4.000000 -1.125000
vt -3.875000 -1.000000
vt -3.875000 -1.125000
vt -0.500000 -1.000000
vt 0.500000 -1.125000
vt 0.500000 -1.000000
vt -0.500000 -4.000000
vt 0.500000 -3.875000
vt 0.500000 -4.000000
vt -0.500000 -3.875000
vt 0.500000 -4.000000
vt 0.500000 -3.875000
vt -0.500000 -1.125000
vt 0.500000 -1.000000
vt 0.500000 -1.125000
vt -4.000000 -1.000000
vt -3.875000 -1.125000
vt -3.875000 -1.000000
vt -3.000000 -1.000000
vt -4.000000 -1.125000
vt -4.000000 8.000000
vt -4.000000 -3.000000
vt -4.000000 -1.000000
vt -3.000000 -1.125000
vt -4.000000 -1.000000
vt -5.000000 -1.125000
vt -5.000000 -3.000000
vt -5.000000 -4.000000
vt -5.000000 -1.000000
vt -4.000000 -1.125000
vt -4.000000 -1.125000
vt -0.500000 -2.000000
vt -0.500000 -0.000000
vt -4.000000 -1.125000
vt -3.875000 -1.000000
vt -0.500000 -1.125000
vt -0.500000 8.000000
vt -0.500000 -3.875000
vt -0.500000 -1.000000
vt -3.875000 -1.125000
vt -4.000000 -1.000000
vt 0.500000 -1.125000
vt 0.500000 -3.000000
vt 0.500000 -4.000000
vt 0.500000 -1.000000
vt -4.000000 -1.125000
vt -3.000000 -1.000000
vt 0.500000 -1.125000
vt 0.500000 8.000000
vt 0.500000 -3.000000
vt 0.500000 -1.000000
vt -3.000000 -1.125000
vt -2.000000 -0.000000
vt 0.500000 -0.125000
vt 3.000000 -1.500000
vt 0.500000 -2.000000
vt 2.500000 -2.000000
vt 3.000000 1.375000
vt 2.500000 2.000000
vt 0.500000 2.000000
vt 0.500000 -0.000000
vt -2.000000 -0.125000
vt 2.000000 -0.000000
vt -2.000000 -0.000000
vt -0.500000 -0.125000
vt -0.500000 4.000000
vt -0.500000 -2.000000
vt -0.500000 -0.000000
vt -2.000000 -0.125000
vt -2.000000 -0.125000
vt -2.500000 -0.125000
vt -0.500000 -2.000000
vt -3.000000 -1.500000
vt -2.500000 -2.000000
vt -0.500000 2.000000
vt -3.000000 1.500000
vt -2.500000 2.000000
vt -2.500000 -0.000000
vt -2.000000 -0.125000
vt 4.000000 0.125000
vt -2.000000 -0.000000
vt -2.000000 6.125000
vt -2.000000 4.000000
vt -2.000000 0.125000
vt 4.000000 -0.000000
vt -4.000000 -1.000000
vt -0.500000 -1.125000
vt -0.500000 -3.875000
vt -0.500000 -4.000000
vt -0.500000 -1.000000
vt -4.000000 -1.125000
vn -0.9823 -0.0901 -0.1645
vn -0.0406 -0.7540 0.6556
vn 0.1831 -0.6506 -0.7370
vn -0.1831 0.6506 0.7370
vn 0.0406 0.7540 -0.6556
vn 0.9823 0.0900 0.1645
vn 0.9823 0.0901 0.1645
vn -0.1795 0.1974 0.9637
vn 0.1807 -0.2192 -0.9588
vn 0.6658 -0.4695 0.5799
vn 0.7924 0.5414 -0.2811
vn -0.7233 -0.5969 0.3472
vn -0.6658 0.4695 -0.5799
vn 0.0406 0.7541 -0.6555
vn -0.1795 0.1974 0.9638
vn 0.0407 0.7540 -0.6556
usemtl base/grating_hallways.002
s 1
f 2/1/1 4/2/1 1/3/1
f 3/4/2 6/5/2 5/6/2
f 2/7/3 7/8/3 6/9/3
f 4/10/4 5/11/4 8/12/4
f 1/13/5 8/14/5 7/15/5
f 5/16/6 7/17/7 8/18/7
f 10/19/1 12/20/1 9/21/1
f 11/22/2 14/23/2 13/24/2
f 10/25/3 15/26/3 14/27/3
f 12/28/4 13/29/4 16/30/4
f 9/31/5 16/32/5 15/33/5
f 13/34/7 15/35/7 16/36/7
f 18/37/1 20/38/1 17/39/1
f 20/40/8 22/41/8 21/42/8
f 19/43/3 23/44/3 22/41/3
f 18/45/9 24/46/9 23/44/9
f 17/47/5 21/48/5 24/49/5
f 21/50/7 23/51/7 24/52/7
f 26/53/1 28/54/1 25/55/1
f 27/56/2 30/57/2 29/58/2
f 26/59/3 31/60/3 30/61/3
f 28/62/4 29/63/4 32/64/4
f 25/65/5 32/66/5 31/67/5
f 29/68/6 31/69/7 32/70/7
f 34/71/1 36/72/1 33/73/1
f 35/74/2 38/75/2 37/76/2
f 34/77/3 39/78/3 38/79/3
f 36/80/4 37/81/4 40/82/4
f 33/83/5 40/84/5 39/85/5
f 37/86/7 39/87/7 40/88/7
f 42/89/1 44/90/1 41/91/1
f 43/92/2 46/93/2 45/94/2
f 42/95/3 47/96/3 46/97/3
f 44/98/4 45/99/4 48/100/4
f 41/101/5 48/102/5 47/103/5
f 45/104/7 47/105/7 48/106/7
f 50/107/1 52/108/1 49/109/1
f 51/110/2 54/111/2 53/112/2
f 49/113/3 56/114/3 57/115/3
f 51/116/4 53/117/4 60/118/4
f 49/119/5 59/120/5 56/121/5
f 53/122/10 55/123/10 60/124/10
f 56/125/11 58/126/11 57/127/11
f 55/123/7 58/126/7 60/124/7
f 62/128/1 64/129/1 61/130/1
f 63/131/2 66/132/2 65/133/2
f 62/134/3 67/135/3 66/136/3
f 64/137/4 65/138/4 68/139/4
f 61/140/5 68/141/5 67/142/5
f 65/143/7 67/144/7 68/145/7
f 70/146/1 72/147/1 69/148/1
f 71/149/12 74/150/12 72/147/12
f 70/146/13 76/151/13 75/152/13
f 74/153/2 78/154/2 77/155/2
f 70/156/3 75/157/3 79/158/3
f 72/159/4 74/160/4 77/161/4
f 75/162/5 80/163/5 79/164/5
f 77/165/7 79/166/7 80/167/7
f 82/168/1 84/169/1 81/170/1
f 83/171/2 86/172/2 85/173/2
f 82/174/3 87/175/3 86/176/3
f 84/177/4 85/178/4 88/179/4
f 81/180/14 88/181/5 87/182/5
f 85/183/7 87/184/7 88/185/7
f 90/186/1 92/187/1 89/188/1
f 91/189/2 94/190/2 93/191/2
f 90/192/3 95/193/3 94/194/3
f 92/195/4 93/196/4 96/197/4
f 89/198/5 96/199/5 95/200/5
f 93/201/7 95/202/7 96/203/7
f 2/1/1 3/204/1 4/2/1
f 3/4/2 2/205/2 6/5/2
f 2/7/3 1/206/3 7/8/3
f 4/10/4 3/207/4 5/11/4
f 1/13/5 4/208/5 8/14/5
f 5/16/6 6/209/6 7/17/7
f 10/19/1 11/210/1 12/20/1
f 11/22/2 10/211/2 14/23/2
f 10/25/3 9/212/3 15/26/3
f 12/28/4 11/213/4 13/29/4
f 9/31/5 12/214/5 16/32/5
f 13/34/7 14/215/7 15/35/7
f 18/37/1 19/216/1 20/38/1
f 20/40/8 19/43/15 22/41/8
f 19/43/3 18/45/3 23/44/3
f 18/45/9 17/217/9 24/46/9
f 17/47/5 20/218/5 21/48/5
f 21/50/7 22/219/7 23/51/7
f 26/53/1 27/220/1 28/54/1
f 27/56/2 26/221/2 30/57/2
f 26/59/3 25/222/3 31/60/3
f 28/62/4 27/223/4 29/63/4
f 25/65/5 28/224/5 32/66/5
f 29/68/6 30/225/6 31/69/7
f 34/71/1 35/226/1 36/72/1
f 35/74/2 34/227/2 38/75/2
f 34/77/3 33/228/3 39/78/3
f 36/80/4 35/229/4 37/81/4
f 33/83/5 36/230/5 40/84/5
f 37/86/7 38/231/7 39/87/7
f 42/89/1 43/232/1 44/90/1
f 43/92/2 42/233/2 46/93/2
f 42/95/3 41/234/3 47/96/3
f 44/98/4 43/235/4 45/99/4
f 41/101/5 44/236/5 48/102/5
f 45/104/7 46/237/7 47/105/7
f 50/107/1 51/238/1 52/108/1
f 51/110/2 50/239/2 54/111/2
f 57/115/3 55/240/3 50/241/3
f 55/240/3 54/242/3 50/241/3
f 50/241/3 49/113/3 57/115/3
f 60/118/4 58/243/4 51/116/4
f 58/243/4 59/244/4 52/245/4
f 51/116/4 58/243/4 52/245/4
f 49/119/5 52/246/5 59/120/5
f 53/122/10 54/247/10 55/123/10
f 56/125/11 59/248/11 58/126/11
f 55/123/7 57/127/7 58/126/7
f 62/128/1 63/249/1 64/129/1
f 63/131/2 62/250/2 66/132/2
f 62/134/3 61/251/3 67/135/3
f 64/137/4 63/252/4 65/138/4
f 61/140/5 64/253/16 68/141/5
f 65/143/7 66/254/7 67/144/7
f 70/146/1 71/149/1 72/147/1
f 71/149/12 73/255/12 74/150/12
f 70/146/13 69/148/13 76/151/13
f 74/153/2 73/256/2 78/154/2
f 79/158/3 78/257/3 71/258/3
f 78/257/3 73/259/3 71/258/3
f 71/258/3 70/156/3 79/158/3
f 77/161/4 80/260/4 69/261/4
f 80/260/4 76/262/4 69/261/4
f 69/261/4 72/159/4 77/161/4
f 75/162/5 76/263/5 80/163/5
f 77/165/7 78/264/7 79/166/7
f 82/168/1 83/265/1 84/169/1
f 83/171/2 82/266/2 86/172/2
f 82/174/3 81/267/3 87/175/3
f 84/177/4 83/268/4 85/178/4
f 81/180/14 84/269/14 88/181/5
f 85/183/7 86/270/7 87/184/7
f 90/186/1 91/271/1 92/187/1
f 91/189/2 90/272/2 94/190/2
f 90/192/3 89/273/3 95/193/3
f 92/195/4 91/274/4 93/196/4
f 89/198/5 92/275/5 96/199/5
f 93/201/7 94/276/7 95/202/7
