# Blender v2.91.0 OBJ File: 'level.blend'
# www.blender.org
mtllib refspear2.mtl
o refspear2_entity13_brush1
v 11.505322 0.559200 -8.349467
v 9.269005 2.526795 -11.095279
v 9.363264 2.286747 -11.344061
v 11.599582 0.319151 -8.598250
v 11.595413 0.771080 -8.271011
v 9.359095 2.738675 -11.016823
v 9.668903 2.535435 -11.414783
v 9.585818 2.289664 -11.523232
v 9.574644 2.775484 -11.165999
v 11.822138 0.322068 -8.777419
v 11.810963 0.807888 -8.420186
v 11.905223 0.567840 -8.668972
v 12.110893 0.226303 -8.426319
v 10.356173 1.546483 -9.694634
v 9.068598 2.624501 -11.516945
v 10.460372 1.261363 -9.983809
v 11.793955 0.449038 -8.008582
v 10.456041 1.786528 -9.603960
v 9.384518 2.625070 -11.773836
v 9.377773 2.876067 -11.588484
v 11.956305 0.100520 -8.390549
v 10.713105 1.836908 -9.777225
v 12.104150 0.477301 -8.240967
v 11.794973 0.225734 -8.169427
v 9.222167 2.973588 -11.391870
v 11.948544 0.574822 -8.044353
v 9.067579 2.847804 -11.356100
v 10.726696 1.266946 -10.196716
v 10.817304 1.551788 -10.066400
v 9.229929 2.499286 -11.738067
v 10.382450 1.389895 -9.828246
v 10.381522 1.681229 -9.618723
v 8.645620 3.250894 -12.272375
v 10.594769 1.223451 -10.120436
v 10.584574 1.846446 -9.665706
v 12.530940 -0.167556 -7.501873
v 10.797820 1.388668 -10.167421
v 10.788554 1.720328 -9.922214
vt 8.517545 0.208333
vt 11.754239 1.432292
vt 8.602797 -0.005208
vt 14.820431 3.083333
vt 11.668987 1.645833
vt 15.015606 2.625000
vt 11.864162 1.187500
vt 8.712720 -0.250000
vt 8.453948 0.500000
vt 11.624853 1.807292
vt 8.473411 0.369792
vt 14.756834 3.375000
vt 11.605391 1.937500
vt 7.797556 2.559568
vt 7.860055 2.997068
vt 7.860055 2.747068
vt 7.547555 2.434568
vt 7.735055 2.372068
vt 7.360055 2.747068
vt 7.360055 2.497068
vt 7.422556 3.122068
vt 7.360055 2.997068
vt 7.672555 3.247068
vt 7.485055 3.247068
vt 7.860055 3.247068
vt 11.750001 9.019738
vt 9.461539 12.017673
vt 9.649039 12.171181
vt 11.375001 8.712720
vt 11.562502 8.866229
vt 7.173078 15.015606
vt 7.360578 15.169115
vt 7.548078 15.322623
vt 7.673078 15.006834
vt 9.586539 11.730392
vt 9.774040 11.855391
vt 7.298078 14.756834
vt 7.485578 14.881834
vt 11.500001 8.453948
vt 11.687501 8.578948
vt 11.875001 8.703948
vt 11.687501 0.500000
vt 11.875001 0.250000
vt 11.875001 0.500000
vt 11.437502 0.375000
vt 11.500001 0.500000
vt 11.375002 0.000000
vt 11.375001 0.250000
vt 11.562502 -0.312500
vt 11.375001 -0.250000
vt 11.812502 -0.187500
vt 11.750001 -0.375000
vt 11.875001 0.000000
vt 8.908627 0.020833
vt 12.124396 1.252604
vt 12.060069 1.458333
vt 9.019738 -0.375000
vt 8.972954 -0.184896
vt 15.322623 2.500000
vt 15.275840 2.690104
vt 15.211512 2.895833
vt 15.006834 3.375000
vt 11.966502 1.690104
vt 15.117946 3.127604
vt 8.703948 0.500000
vt 11.855391 1.937500
vt 14.905683 2.869792
vt 14.776297 3.244792
vt 7.610054 2.851234
vt 9.274039 11.864162
vt 9.399040 11.605392
vt 11.624998 0.104167
vt 12.171181 1.062500
vt 8.815059 0.252604
vn -0.7952 -0.5203 0.3115
vn -0.7964 -0.5478 0.2561
vn -0.7771 -0.5735 0.2592
vn -0.8226 -0.4961 0.2778
vn -0.8242 -0.4412 0.3550
vn -0.7838 -0.5960 0.1744
vn -0.7520 -0.6411 0.1530
vn -0.7562 -0.6203 0.2083
vn -0.6683 0.1781 0.7222
vn -0.7400 0.0893 0.6667
vn -0.7286 0.0568 0.6826
vn -0.7060 0.2112 0.6760
vn -0.6049 0.3262 0.7264
vn -0.8056 -0.0264 0.5919
vn -0.8180 -0.1577 0.5532
vn -0.7717 -0.0562 0.6335
vn 0.5511 -0.0652 -0.8319
vn 0.6615 0.6872 -0.3001
vn 0.7655 0.3954 -0.5076
vn -0.3058 -0.7165 -0.6270
vn 0.2124 -0.4999 -0.8396
vn -0.8642 -0.4920 0.1054
vn -0.7131 -0.6888 -0.1302
vn -0.7952 0.2835 0.5360
vn -0.8932 -0.2655 0.3630
vn 0.0219 0.9474 0.3192
vn -0.4250 0.6892 0.5868
vn 0.5040 0.8632 -0.0293
vn -0.1495 -0.8788 -0.4532
vn -0.2683 -0.8731 -0.4071
vn -0.0478 -0.8299 -0.5558
vn -0.3855 -0.8824 -0.2697
vn -0.2779 -0.8908 -0.3596
vn -0.4219 -0.8504 -0.3144
vn -0.3171 -0.8562 -0.4078
vn -0.1905 -0.8427 -0.5035
vn 0.2609 0.8895 0.3752
vn 0.1487 0.8572 0.4931
vn 0.3557 0.8723 0.3354
vn 0.0500 0.8537 0.5184
vn 0.1600 0.8796 0.4480
vn 0.0894 0.8191 0.5667
vn 0.1989 0.8454 0.4957
vn 0.2981 0.8567 0.4208
vn 0.2777 0.7224 0.6333
vn 0.8515 0.5201 -0.0670
vn 0.6816 0.7069 0.1888
vn -0.5596 0.0763 0.8252
vn -0.2356 0.5225 0.8194
vn -0.6802 -0.6539 0.3313
vn -0.7628 -0.3802 0.5230
vn -0.0345 -0.9552 -0.2938
vn -0.5504 -0.8320 0.0695
vn 0.8028 -0.2867 -0.5229
vn 0.4432 -0.7029 -0.5563
vn 0.8908 0.2851 -0.3537
vn 0.8269 0.1080 -0.5519
vn 0.7741 -0.0035 -0.6330
vn 0.8277 0.2207 -0.5160
vn 0.7469 -0.1321 -0.6517
vn 0.7974 -0.0032 -0.6035
vn 0.7086 -0.0983 -0.6988
vn 0.7613 0.0285 -0.6478
vn 0.7938 0.1370 -0.5925
vn 0.7511 0.6295 -0.1990
vn 0.7934 0.5559 -0.2479
vn 0.7766 0.5741 -0.2594
vn 0.7798 0.6042 -0.1637
vn 0.7443 0.6534 -0.1380
vn 0.8236 0.4931 -0.2803
vn 0.8239 0.4430 -0.3536
vn 0.7958 0.5175 -0.3144
vn -0.8050 -0.5490 0.2250
vn -0.7649 0.0887 0.6380
vn -0.5536 0.4875 -0.6752
vn -0.4712 -0.8523 -0.2270
vn -0.0687 0.7836 0.6175
vn 0.5504 -0.4839 0.6804
vn 0.6718 -0.2225 -0.7066
vn 0.8052 0.5489 -0.2243
usemtl base/pole_stone
s 1
f 1/1/1 31/2/2 24/3/3
f 2/4/4 31/2/2 14/5/5
f 31/2/2 3/6/6 16/7/7
f 31/2/2 4/8/8 24/3/3
f 5/9/9 32/10/10 17/11/11
f 6/12/12 32/10/10 18/13/13
f 32/10/10 2/4/14 14/5/15
f 32/10/10 1/1/16 17/11/11
f 19/14/17 20/15/18 7/16/19
f 30/17/20 19/14/17 8/18/21
f 15/19/22 30/17/20 3/20/23
f 27/21/24 15/19/22 2/22/25
f 25/23/26 27/21/24 6/24/27
f 20/15/18 25/23/26 9/25/28
f 10/26/29 34/27/30 28/28/31
f 4/29/32 34/27/30 21/30/33
f 34/27/30 3/31/34 30/32/35
f 34/27/30 8/33/36 28/28/31
f 9/34/37 35/35/38 22/36/39
f 6/37/40 35/35/38 25/38/41
f 35/35/38 5/39/42 26/40/43
f 35/35/38 11/41/44 22/36/39
f 26/42/45 23/43/46 11/44/47
f 17/45/48 26/42/45 5/46/49
f 24/47/50 17/45/48 1/48/51
f 21/49/52 24/47/50 4/50/53
f 13/51/54 21/49/52 10/52/55
f 23/43/46 13/51/54 12/53/56
f 12/54/57 37/55/58 29/56/59
f 10/57/60 37/55/58 13/58/61
f 37/55/58 8/59/62 19/60/63
f 37/55/58 7/61/64 29/56/59
f 9/62/65 38/63/66 20/64/67
f 11/65/68 38/63/66 22/66/69
f 38/63/66 12/54/70 29/56/71
f 38/63/66 7/61/72 20/64/67
f 1/1/1 14/5/5 31/2/2
f 2/4/4 15/67/73 31/2/2
f 31/2/2 15/67/73 3/6/6
f 31/2/2 16/7/7 4/8/8
f 5/9/9 18/13/13 32/10/10
f 6/12/12 27/68/74 32/10/10
f 32/10/10 27/68/74 2/4/14
f 32/10/10 14/5/15 1/1/16
f 19/14/17 33/69/75 20/15/18
f 30/17/20 33/69/75 19/14/17
f 15/19/22 33/69/75 30/17/20
f 27/21/24 33/69/75 15/19/22
f 25/23/26 33/69/75 27/21/24
f 20/15/18 33/69/75 25/23/26
f 10/26/29 21/30/33 34/27/30
f 4/29/32 16/70/76 34/27/30
f 34/27/30 16/70/76 3/31/34
f 34/27/30 30/32/35 8/33/36
f 9/34/37 25/38/41 35/35/38
f 6/37/40 18/71/77 35/35/38
f 35/35/38 18/71/77 5/39/42
f 35/35/38 26/40/43 11/41/44
f 26/42/45 36/72/78 23/43/46
f 17/45/48 36/72/78 26/42/45
f 24/47/50 36/72/78 17/45/48
f 21/49/52 36/72/78 24/47/50
f 13/51/54 36/72/78 21/49/52
f 23/43/46 36/72/78 13/51/54
f 12/54/57 13/58/61 37/55/58
f 10/57/60 28/73/79 37/55/58
f 37/55/58 28/73/79 8/59/62
f 37/55/58 19/60/63 7/61/64
f 9/62/65 22/66/69 38/63/66
f 11/65/68 23/74/80 38/63/66
f 38/63/66 23/74/80 12/54/70
f 38/63/66 29/56/71 7/61/72
