# Blender v2.91.0 OBJ File: 'sign.blend'
# www.blender.org
mtllib stand.mtl
o stand_entity1_brush4
v -2.250000 -1.000000 -2.375000
v -2.250000 -1.000000 -2.125000
v -2.250000 3.750000 0.012501
v -2.250000 3.750000 -0.237499
v -2.000000 3.750000 0.012501
v -2.000000 -1.000000 -2.125000
v -2.000000 -1.000000 -2.375000
v -2.000000 3.750000 -0.237499
v -2.250000 3.750000 -0.249999
v -2.250000 3.750000 0.250001
v -2.250000 3.875000 0.250001
v -2.250000 3.875000 -0.249999
v 0.250000 3.875000 0.250001
v 0.250000 3.750000 0.250001
v 0.250000 3.750000 -0.249999
v 0.250000 3.875000 -0.249999
v 0.000000 -1.000000 2.125000
v 0.000000 -1.000000 2.375000
v 0.000000 0.875000 1.531250
v 0.000000 0.875000 1.281250
v 0.250000 0.875000 1.531250
v 0.250000 -1.000000 2.375000
v 0.250000 -1.000000 2.125000
v 0.250000 0.875000 1.281250
v 0.000000 -1.000000 -2.375000
v 0.000000 -1.000000 -2.125000
v 0.000000 3.750000 0.012501
v 0.000000 3.750000 -0.237499
v 0.250000 3.750000 0.012501
v 0.250000 -1.000000 -2.125000
v 0.250000 -1.000000 -2.375000
v 0.250000 3.750000 -0.237499
v -2.250000 -1.000000 2.125000
v -2.250000 -1.000000 2.375000
v -2.250000 0.875000 1.531250
v -2.250000 0.875000 1.281250
v -2.000000 0.875000 1.531250
v -2.000000 -1.000000 2.375000
v -2.000000 -1.000000 2.125000
v -2.000000 0.875000 1.281250
vt -2.125781 1.000000
vt -0.238281 -3.750000
vt -2.375781 1.000000
vt 2.250000 -3.750000
vt 2.000000 1.000000
vt 2.000000 -3.750000
vt 2.250000 -2.125000
vt 2.000000 -2.375000
vt 2.000000 -2.125000
vt 2.250000 -0.237500
vt 2.000000 0.012500
vt 2.000000 -0.237500
vt 2.250000 1.000000
vt 2.000000 -3.750000
vt 2.000000 1.000000
vt -0.238281 -3.750000
vt -2.125781 1.000000
vt -2.375781 1.000000
vt -0.250000 3.750000
vt 0.250000 3.875000
vt 0.250000 3.750000
vt -2.250000 3.875000
vt 0.250000 3.750000
vt 0.250000 3.875000
vt -2.250000 -0.250000
vt 0.250000 0.250000
vt 0.250000 -0.250000
vt -2.250000 0.250000
vt 0.250000 -0.250000
vt 0.250000 0.250000
vt -2.250000 3.750000
vt 0.250000 3.875000
vt 0.250000 3.750000
vt -0.250000 3.875000
vt -2.121875 -1.000000
vt -1.528125 0.875000
vt -1.278125 0.875000
vt 0.000000 0.875000
vt 0.250000 -1.000000
vt 0.250000 0.875000
vt 0.000000 -2.375000
vt 0.250000 -2.125000
vt 0.250000 -2.375000
vt 0.000000 -1.281250
vt 0.250000 -1.531250
vt 0.250000 -1.281250
vt 0.000000 -1.000000
vt 0.250000 0.875000
vt 0.250000 -1.000000
vt -1.528125 0.875000
vt -2.121875 -1.000000
vt -1.278125 0.875000
vt -2.125781 1.000000
vt -0.238281 -3.750000
vt -2.375781 1.000000
vt 0.000000 -3.750000
vt -0.250000 1.000000
vt -0.250000 -3.750000
vt 0.000000 -2.125000
vt -0.250000 -2.375000
vt -0.250000 -2.125000
vt 0.000000 -0.237500
vt -0.250000 0.012500
vt -0.250000 -0.237500
vt 0.000000 1.000000
vt -0.250000 -3.750000
vt -0.250000 1.000000
vt -0.238281 -3.750000
vt -2.125781 1.000000
vt -2.375781 1.000000
vt -2.125781 -1.000000
vt -1.532031 0.875000
vt -1.282031 0.875000
vt -2.250000 0.875000
vt -2.000000 -1.000000
vt -2.000000 0.875000
vt -2.250000 -2.375000
vt -2.000000 -2.125000
vt -2.000000 -2.375000
vt -2.250000 -1.281250
vt -2.000000 -1.531250
vt -2.000000 -1.281250
vt -2.250000 -1.000000
vt -2.000000 0.875000
vt -2.000000 -1.000000
vt -1.532031 0.875000
vt -2.125781 -1.000000
vt -1.282031 0.875000
vt 0.011719 -3.750000
vt 2.250000 1.000000
vt 2.250000 -2.375000
vt 2.250000 0.012500
vt 2.250000 -3.750000
vt 0.011719 -3.750000
vt -0.250000 3.875000
vt -2.250000 3.750000
vt -2.250000 0.250000
vt -2.250000 -0.250000
vt -2.250000 3.875000
vt -0.250000 3.750000
vt -2.371875 -1.000000
vt 0.000000 -1.000000
vt 0.000000 -2.125000
vt 0.000000 -1.531250
vt 0.000000 0.875000
vt -2.371875 -1.000000
vt 0.011719 -3.750000
vt 0.000000 1.000000
vt 0.000000 -2.375000
vt 0.000000 0.012500
vt 0.000000 -3.750000
vt 0.011719 -3.750000
vt -2.375781 -1.000000
vt -2.250000 -1.000000
vt -2.250000 -2.125000
vt -2.250000 -1.531250
vt -2.250000 0.875000
vt -2.375781 -1.000000
vn -1.0000 0.0000 0.0000
vn 0.0000 -0.4104 0.9119
vn 0.0000 -1.0000 0.0000
vn 0.0000 1.0000 0.0000
vn 0.0000 0.4104 -0.9119
vn 1.0000 -0.0000 0.0000
vn 0.0000 0.0000 1.0000
vn 0.0000 0.0000 -1.0000
vn 0.0000 0.4104 0.9119
vn 0.0000 -0.4104 -0.9119
usemtl base/green_fancy
s 1
f 2/1/1 4/2/1 1/3/1
f 3/4/2 6/5/2 5/6/2
f 2/7/3 7/8/3 6/9/3
f 4/10/4 5/11/4 8/12/4
f 1/13/5 8/14/5 7/15/5
f 8/16/6 6/17/6 7/18/6
f 10/19/1 12/20/1 9/21/1
f 11/22/7 14/23/7 13/24/7
f 10/25/3 15/26/3 14/27/3
f 12/28/4 13/29/4 16/30/4
f 9/31/8 16/32/8 15/33/8
f 13/34/6 15/33/6 16/32/6
f 17/35/1 19/36/1 20/37/1
f 19/38/9 22/39/9 21/40/9
f 18/41/3 23/42/3 22/43/3
f 20/44/4 21/45/4 24/46/4
f 17/47/10 24/48/10 23/49/10
f 21/50/6 23/51/6 24/52/6
f 26/53/1 28/54/1 25/55/1
f 27/56/2 30/57/2 29/58/2
f 26/59/3 31/60/3 30/61/3
f 28/62/4 29/63/4 32/64/4
f 25/65/5 32/66/5 31/67/5
f 32/68/6 30/69/6 31/70/6
f 33/71/1 35/72/1 36/73/1
f 35/74/9 38/75/9 37/76/9
f 34/77/3 39/78/3 38/79/3
f 36/80/4 37/81/4 40/82/4
f 33/83/10 40/84/10 39/85/10
f 37/86/6 39/87/6 40/88/6
f 2/1/1 3/89/1 4/2/1
f 3/4/2 2/90/2 6/5/2
f 2/7/3 1/91/3 7/8/3
f 4/10/4 3/92/4 5/11/4
f 1/13/5 4/93/5 8/14/5
f 8/16/6 5/94/6 6/17/6
f 10/19/1 11/95/1 12/20/1
f 11/22/7 10/96/7 14/23/7
f 10/25/3 9/97/3 15/26/3
f 12/28/4 11/98/4 13/29/4
f 9/31/8 12/99/8 16/32/8
f 13/34/6 14/100/6 15/33/6
f 17/35/1 18/101/1 19/36/1
f 19/38/9 18/102/9 22/39/9
f 18/41/3 17/103/3 23/42/3
f 20/44/4 19/104/4 21/45/4
f 17/47/10 20/105/10 24/48/10
f 21/50/6 22/106/6 23/51/6
f 26/53/1 27/107/1 28/54/1
f 27/56/2 26/108/2 30/57/2
f 26/59/3 25/109/3 31/60/3
f 28/62/4 27/110/4 29/63/4
f 25/65/5 28/111/5 32/66/5
f 32/68/6 29/112/6 30/69/6
f 33/71/1 34/113/1 35/72/1
f 35/74/9 34/114/9 38/75/9
f 34/77/3 33/115/3 39/78/3
f 36/80/4 35/116/4 37/81/4
f 33/83/10 36/117/10 40/84/10
f 37/86/6 38/118/6 39/87/6
