# Blender v2.91.0 OBJ File: 'level.blend'
# www.blender.org
mtllib eyestuff_building.mtl
o eyestuff_building_entity3_brush0
v 18.860361 15.686491 -33.210003
v 18.672377 12.199091 -30.177952
v 18.570581 14.357788 -30.752117
v 18.656954 15.960107 -32.145222
v 22.499609 14.718073 -30.094130
v 22.601402 12.559376 -29.519964
v 22.789387 16.046776 -32.552017
v 22.585979 16.320391 -31.487234
v 17.486712 12.382636 -29.277668
v 17.669796 11.732004 -30.014660
v 17.547861 9.469907 -28.047924
v 17.364777 10.120540 -27.310932
v 18.018667 9.137926 -27.637886
v 17.835583 9.788559 -26.900894
v 18.181248 12.154056 -30.260201
v 17.998163 12.804688 -29.523209
v 22.746864 10.238914 -26.078409
v 22.929949 9.588282 -26.815401
v 23.441401 10.010334 -27.060944
v 23.092531 12.604411 -29.437717
v 23.558256 12.178177 -28.945732
v 23.375172 12.828809 -28.208738
v 22.909447 13.255043 -28.700724
v 23.258316 10.660966 -26.323950
v 15.728350 7.426755 -28.222666
v 15.687704 6.672723 -27.567087
v 15.504620 7.323355 -26.830095
v 15.545265 8.077387 -27.485674
v 25.327187 8.224066 -25.185127
v 25.510271 7.573434 -25.922119
v 25.550915 8.327466 -26.577698
v 25.367832 8.978098 -25.840706
v 17.157705 15.811181 -35.269535
v 16.710606 7.516826 -28.058168
v 16.527523 8.167459 -27.321177
v 16.974621 16.461813 -34.532543
v 24.385574 8.888027 -26.005201
v 24.568659 8.237394 -26.742193
v 25.015757 16.531750 -33.953560
v 24.832672 17.182383 -33.216568
vt 6.625000 -1.000000
vt 4.000000 -0.000000
vt 6.125000 -0.000000
vt -2.000000 4.000000
vt 2.000000 2.000000
vt 2.000000 4.000000
vt -2.000000 0.999999
vt 2.000000 3.124998
vt 2.000000 0.999999
vt -2.000000 6.125000
vt 2.000000 6.125000
vt -2.000000 -1.000000
vt 2.000000 -0.000000
vt 2.000000 -1.000000
vt 4.000000 -0.000000
vt 6.625000 -1.000000
vt 6.125000 -0.000000
vt 1.500000 -1.000000
vt -1.500000 -0.000000
vt 1.500000 -0.000000
vt -1.500000 -1.000000
vt -2.000000 -0.000000
vt 2.000000 -0.000000
vt 2.000000 -1.000000
vt -2.500000 -0.000000
vt 2.500000 -1.000000
vt 2.500000 -0.000000
vt 2.500000 2.000000
vt 3.000000 1.375000
vt 2.500000 -2.000000
vt -2.500000 -2.000000
vt 2.500000 -2.000000
vt 2.500000 2.000000
vt -2.500000 -1.000000
vt 2.500000 -0.000000
vt 2.500000 -1.000000
vt -2.000000 -0.000000
vt -1.500000 -1.000000
vt -1.500000 -0.000000
vt 2.000000 -1.000000
vt 1.375000 -0.000000
vt 1.375000 -1.000000
vt -4.000000 -2.000000
vt -3.000000 -1.000000
vt -3.000000 -2.000000
vt -5.000000 -1.000000
vt 5.000000 -2.000000
vt 5.000000 -1.000000
vt -5.000000 -4.000000
vt 5.000000 -3.000000
vt 5.000000 -4.000000
vt -5.000000 -3.000000
vt 5.000000 -4.000000
vt 5.000000 -3.000000
vt -5.000000 -2.000000
vt 5.000000 -1.000000
vt 5.000000 -2.000000
vt -4.000000 -1.000000
vt -3.000000 -2.000000
vt -3.000000 -1.000000
vt -3.000000 -2.000000
vt 8.000000 -1.000000
vt 8.000000 -2.000000
vt -4.000000 -1.000000
vt 4.000000 -2.000000
vt 4.000000 -1.000000
vt -4.000000 -3.000000
vt 4.000000 8.000000
vt 4.000000 -3.000000
vt -4.000000 8.000000
vt 4.000000 -3.000000
vt 4.000000 8.000000
vt -4.000000 -2.000000
vt 4.000000 -1.000000
vt 4.000000 -2.000000
vt -3.000000 -1.000000
vt 8.000000 -2.000000
vt 8.000000 -1.000000
vt 2.000000 -1.000000
vt -2.000000 2.000000
vt -2.000000 3.124998
vt -2.000000 -0.000000
vt 2.000000 -1.000000
vt -2.000000 -1.000000
vt -2.500000 -1.000000
vt 3.000000 -1.500000
vt -2.500000 -2.000000
vt -2.500000 2.000000
vt -3.000000 -1.500000
vt -3.000000 1.500000
vt 3.000000 -1.500000
vt 3.000000 1.375000
vt -2.500000 2.000000
vt -3.000000 1.500000
vt -3.000000 -1.500000
vt -2.500000 -0.000000
vt -2.000000 -1.000000
vt 2.000000 -0.000000
vt -4.000000 -1.000000
vt -5.000000 -2.000000
vt -5.000000 -3.000000
vt -5.000000 -4.000000
vt -5.000000 -1.000000
vt -4.000000 -2.000000
vt -3.000000 -1.000000
vt -4.000000 -2.000000
vt -4.000000 8.000000
vt -4.000000 -3.000000
vt -4.000000 -1.000000
vt -3.000000 -2.000000
vn -0.9823 -0.0901 -0.1645
vn -0.1819 0.2447 0.9524
vn 0.1831 -0.6506 -0.7370
vn -0.1831 0.6506 0.7370
vn -0.0455 0.9654 -0.2568
vn 0.9823 0.0901 0.1645
vn -0.7233 -0.5969 0.3472
vn -0.6658 0.4695 -0.5799
vn -0.0406 -0.7540 0.6556
vn 0.0406 0.7540 -0.6556
vn 0.6658 -0.4695 0.5799
vn 0.7924 0.5414 -0.2811
usemtl base/door_eye.002
s 1
f 1/1/1 3/2/1 4/3/1
f 3/4/2 6/5/2 5/6/2
f 2/7/3 7/8/3 6/9/3
f 4/10/4 5/6/4 8/11/4
f 1/12/5 8/13/5 7/14/5
f 5/15/6 7/16/6 8/17/6
f 10/18/1 12/19/1 9/20/1
f 11/21/7 14/22/7 12/19/7
f 10/18/8 16/23/8 15/24/8
f 14/25/9 18/26/9 17/27/9
f 20/28/3 21/29/3 18/30/3
f 14/31/4 17/32/4 23/33/4
f 15/34/10 23/35/10 20/36/10
f 17/37/11 19/38/11 24/39/11
f 20/40/12 22/41/12 21/42/12
f 19/38/6 22/41/6 24/39/6
f 26/43/1 28/44/1 25/45/1
f 27/46/9 30/47/9 29/48/9
f 26/49/3 31/50/3 30/51/3
f 28/52/4 29/53/4 32/54/4
f 25/55/10 32/56/10 31/57/10
f 29/58/6 31/59/6 32/60/6
f 34/61/1 36/62/1 33/63/1
f 35/64/9 38/65/9 37/66/9
f 34/67/3 39/68/3 38/69/3
f 36/70/4 37/71/4 40/72/4
f 33/73/10 40/74/10 39/75/10
f 37/76/6 39/77/6 40/78/6
f 1/1/1 2/79/1 3/2/1
f 3/4/2 2/80/2 6/5/2
f 2/7/3 1/81/3 7/8/3
f 4/10/4 3/4/4 5/6/4
f 1/12/5 4/82/5 8/13/5
f 5/15/6 6/83/6 7/16/6
f 10/18/1 11/21/1 12/19/1
f 11/21/7 13/84/7 14/22/7
f 10/18/8 9/20/8 16/23/8
f 14/25/9 13/85/9 18/26/9
f 21/29/3 19/86/3 18/30/3
f 18/30/3 13/87/3 15/88/3
f 13/87/3 11/89/3 15/88/3
f 11/89/3 10/90/3 15/88/3
f 15/88/3 20/28/3 18/30/3
f 24/91/4 22/92/4 17/32/4
f 22/92/4 23/33/4 17/32/4
f 23/33/4 16/93/4 14/31/4
f 16/93/4 9/94/4 14/31/4
f 9/94/4 12/95/4 14/31/4
f 15/34/10 16/96/10 23/35/10
f 17/37/11 18/97/11 19/38/11
f 20/40/12 23/98/12 22/41/12
f 19/38/6 21/42/6 22/41/6
f 26/43/1 27/99/1 28/44/1
f 27/46/9 26/100/9 30/47/9
f 26/49/3 25/101/3 31/50/3
f 28/52/4 27/102/4 29/53/4
f 25/55/10 28/103/10 32/56/10
f 29/58/6 30/104/6 31/59/6
f 34/61/1 35/105/1 36/62/1
f 35/64/9 34/106/9 38/65/9
f 34/67/3 33/107/3 39/68/3
f 36/70/4 35/108/4 37/71/4
f 33/73/10 36/109/10 40/74/10
f 37/76/6 38/110/6 39/77/6
