# Blender v2.91.0 OBJ File: 'level.blend'
# www.blender.org
mtllib shinytop.mtl
o shinytop_Cylinder.002
v 19.703274 11.099588 -27.514208
v 20.286497 12.362594 -28.455753
v 20.035946 12.080996 -25.991665
v 20.619169 13.344002 -26.933210
v 19.786694 12.180273 -26.012886
v 20.369919 13.443278 -26.954433
v 19.242767 12.272663 -26.225878
v 19.825993 13.535668 -27.167423
v 18.722792 12.304046 -26.505871
v 19.306015 13.567051 -27.447418
v 18.531361 12.256037 -26.688850
v 19.114584 13.519042 -27.630396
v 19.885262 10.951127 -27.272247
v 20.596291 12.490903 -28.420120
v 20.442944 12.699075 -26.408970
v 19.818007 11.994024 -25.914949
v 20.529036 13.533800 -27.062820
v 20.155462 12.813579 -26.433447
v 19.440001 12.085367 -26.026569
v 20.151030 13.625143 -27.174440
v 19.528109 12.920139 -26.679108
v 18.932976 12.144354 -26.261511
v 19.644005 13.684130 -27.409384
v 18.928379 12.956335 -27.002047
v 18.593937 12.136431 -26.482151
v 19.304966 13.676206 -27.630024
v 18.707584 12.900963 -27.213091
v 19.378235 11.010114 -27.507191
v 20.089264 12.549890 -28.655064
v 20.347351 12.753421 -26.395283
v 19.859512 12.871305 -26.539335
v 19.205164 12.947431 -26.842543
v 18.767616 12.937204 -27.127291
v 20.511969 12.857170 -28.818167
v 19.475126 10.611828 -27.144308
v 14.223028 11.877783 -21.671150
v 14.060266 12.905432 -21.261948
v 14.263674 12.631815 -22.326729
v 14.368310 13.601100 -20.442707
v 14.531073 12.573452 -20.851910
v 14.571717 13.327483 -21.507488
v 15.205284 11.967854 -21.506653
v 15.245930 12.721887 -22.162231
v 15.042522 12.995502 -21.097450
v 23.063337 12.688423 -20.190680
v 22.900576 13.716072 -19.781475
v 23.103983 13.442455 -20.846258
v 23.208620 14.411739 -18.962234
v 23.371382 13.384091 -19.371437
v 23.412025 14.138124 -20.027018
v 24.045593 12.778494 -20.026182
v 24.086239 13.532526 -20.681761
v 23.882832 13.806143 -19.616980
v 18.067741 11.645800 -23.224976
v 18.108385 12.399832 -23.880554
v 18.804434 11.713352 -23.101603
v 19.090643 12.489902 -23.716057
v 19.060158 11.924378 -23.224373
v 15.571453 10.666589 -22.980639
v 15.612099 11.420622 -23.636217
v 18.108385 12.399832 -23.880554
v 18.067741 11.645800 -23.224976
v 19.060158 11.924378 -23.224373
v 19.090643 12.489902 -23.716057
v 23.429506 11.387158 -21.664663
v 23.470152 12.141191 -22.320242
v 23.470152 12.141191 -22.320242
v 23.876606 19.681513 -28.876030
v 24.452408 12.231261 -22.155746
v 24.858860 19.771584 -28.711533
v 23.551081 21.736809 -28.057625
v 23.388319 22.764458 -27.648420
v 23.591726 22.490841 -28.713202
v 23.696363 23.460127 -26.829180
v 23.859125 22.432478 -27.238382
v 23.899769 23.186510 -27.893961
v 24.533339 21.826881 -27.893127
v 24.573982 22.580914 -28.548704
v 24.370575 22.854530 -27.483923
v 23.876606 19.681513 -28.876030
v 23.917250 20.435543 -29.531609
v 24.858860 19.771584 -28.711533
v 24.899506 20.525616 -29.367111
v 22.853703 18.837410 -28.384947
v 22.894348 19.591442 -29.040525
v 23.917250 20.435543 -29.531609
v 23.876606 19.681513 -28.876030
v 21.871447 18.747337 -28.549444
v 21.912092 19.501369 -29.205023
v 22.853703 18.837410 -28.384947
v 22.894348 19.591442 -29.040525
v 19.334515 17.014095 -27.649529
v 19.375160 17.768127 -28.305107
v 21.912092 19.501369 -29.205023
v 21.871447 18.747337 -28.549444
v 18.382742 17.489548 -28.305710
v 18.352257 16.924025 -27.814026
v 18.638468 17.700575 -28.428480
v 19.334515 17.014095 -27.649529
v 19.375160 17.768127 -28.305107
v 16.736614 14.149805 -25.766245
v 16.777260 14.903837 -26.421825
v 18.352257 16.924025 -27.814026
v 19.334515 17.014095 -27.649529
v 15.784842 14.625258 -26.422426
v 15.764519 14.248242 -26.094637
v 15.999922 14.082252 -25.889618
v 16.040567 14.836285 -26.545197
v 16.736614 14.149805 -25.766245
v 16.777260 14.903837 -26.421825
v 18.108385 12.399832 -23.880554
v 20.726608 15.641138 -26.091625
v 19.090643 12.489902 -23.716057
v 20.685963 14.887106 -25.436047
v 20.685963 14.887106 -25.436047
v 20.726608 15.641138 -26.091625
v 21.422655 14.954659 -25.312675
v 21.708866 15.731209 -25.927130
v 21.678381 15.165685 -25.435446
v 20.726608 15.641138 -26.091625
v 22.813057 18.083378 -27.729368
v 21.708866 15.731209 -25.927130
v 22.772413 17.329346 -27.073790
v 22.772413 17.329346 -27.073790
v 22.813057 18.083378 -27.729368
v 23.754669 17.419415 -26.909294
v 23.795315 18.173447 -27.564873
v 21.952736 20.255402 -29.860601
v 21.993382 21.009434 -30.516180
v 23.917250 20.435543 -29.531609
v 23.957895 21.189575 -30.187187
v 18.023710 19.895119 -30.518589
v 18.064356 20.649151 -31.174168
v 21.952736 20.255402 -29.860601
v 21.993382 21.009434 -30.516180
v 16.059196 19.714975 -30.847584
v 16.099842 20.469007 -31.503160
v 18.023710 19.895119 -30.518589
v 18.064356 20.649151 -31.174168
v 14.710772 20.926170 -29.538095
v 14.548010 21.953817 -29.128893
v 14.751416 21.680202 -30.193674
v 14.856052 22.649487 -28.309652
v 15.018815 21.621838 -28.718855
v 15.059460 22.375870 -29.374434
v 15.693028 21.016241 -29.373598
v 15.733673 21.770273 -30.029177
v 15.530266 22.043888 -28.964396
v 14.629842 11.330550 -23.800714
v 15.076941 19.624905 -31.012079
v 15.612099 11.420622 -23.636217
v 16.059196 19.714975 -30.847584
vt 0.026828 0.089873
vt 0.049600 0.500000
vt 0.083853 0.000000
vt 0.026828 0.910126
vt 0.000000 0.500000
vt 0.129288 0.910126
vt 0.118175 0.500000
vt 0.129288 0.089873
vt 0.201738 0.500000
vt 0.201738 0.000000
vt 0.274188 0.910126
vt 0.285300 0.500000
vt 0.274188 0.089873
vt 0.353875 0.500000
vt 0.319623 0.000000
vt 0.433563 0.910126
vt 0.422450 0.500000
vt 0.433563 0.089873
vt 0.388128 0.000000
vt 0.506013 0.500000
vt 0.506013 0.000000
vt 0.578463 0.910126
vt 0.589575 0.500000
vt 0.578463 0.089873
vt 0.589575 0.410990
vt 0.712497 0.376761
vt 0.626927 0.307296
vt 0.589575 0.103694
vt 0.712497 0.069465
vt 0.626927 0.000000
vt 0.083853 1.000000
vt 0.201738 1.000000
vt 0.319623 1.000000
vt 0.388128 1.000000
vt 0.506013 1.000000
vt 0.712497 0.614591
vt 0.712497 0.307296
vt 3.583333 -1.970757
vt 3.583333 -2.283105
vt 4.083333 -1.970757
vt 4.250000 -0.970351
vt 4.250000 -1.282699
vt 4.750000 -1.282699
vt -3.583333 -2.096673
vt -3.583333 -2.409020
vt -3.083333 -2.409020
vt -4.250000 -1.844436
vt -4.250000 -2.156784
vt -3.750000 -1.844436
vt 3.583333 -1.970757
vt 3.583333 -2.283105
vt 4.083333 -1.970757
vt 4.250000 -0.970351
vt 4.250000 -1.282699
vt 4.750000 -1.282699
vt -3.583333 -2.096673
vt -3.583333 -2.409020
vt -3.083333 -2.409020
vt -4.250000 -1.844436
vt -4.250000 -2.156784
vt -3.750000 -1.844436
vt -2.000000 -2.000000
vt -1.250000 -3.000000
vt -1.000000 -2.750000
vt -4.000000 -3.000000
vt -1.500000 -3.000000
vt -1.500000 -2.000000
vt 4.000000 -3.000000
vt -0.500000 -2.750000
vt 4.000000 -4.000000
vt 4.000000 7.000000
vt 5.000000 -3.000000
vt 5.000000 7.000000
vt 3.583333 6.029243
vt 3.583333 5.716895
vt 4.083333 6.029243
vt 4.250000 6.029649
vt 4.250000 5.717301
vt 4.750000 5.717301
vt -3.583333 4.903327
vt -3.583333 4.590980
vt -3.083333 4.590980
vt -4.250000 6.155564
vt -4.250000 5.843216
vt -3.750000 6.155564
vt 4.000000 8.000000
vt 5.000000 7.000000
vt 5.000000 8.000000
vt 3.000000 7.000000
vt 4.000000 7.000000
vt 4.000000 8.000000
vt 2.000000 7.000000
vt 3.000000 6.000000
vt 3.000000 7.000000
vt -0.500000 5.000000
vt 2.000000 6.000000
vt 2.000000 7.000000
vt -1.000000 4.750000
vt -1.000000 4.000000
vt 0.000000 4.000000
vt -0.500000 4.000000
vt -3.000000 1.500000
vt -3.000000 0.500000
vt -4.000000 0.750000
vt -3.750000 0.500000
vt -3.000000 0.500000
vt -1.500000 -2.000000
vt 1.000000 1.000000
vt 1.000000 2.000000
vt 1.000000 2.000000
vt 1.750000 1.000000
vt 2.000000 1.250000
vt 1.000000 2.000000
vt 3.000000 4.000000
vt 3.000000 5.000000
vt 3.000000 5.000000
vt 4.000000 4.000000
vt 4.000000 5.000000
vt 2.000000 9.000000
vt 4.000000 8.000000
vt 4.000000 9.000000
vt -2.000000 9.000000
vt 2.000000 8.000000
vt 2.000000 9.000000
vt -4.000000 9.000000
vt -2.000000 8.000000
vt -2.000000 9.000000
vt 3.583333 6.029243
vt 3.583333 5.716895
vt 4.083333 6.029243
vt 4.250000 6.029649
vt 4.250000 5.717301
vt 4.750000 5.717301
vt -3.583333 4.903327
vt -3.583333 4.590980
vt -3.083333 4.590980
vt -4.250000 6.155564
vt -4.250000 5.843216
vt -3.750000 6.155564
vt -5.000000 8.000000
vt -4.000000 -3.000000
vt -4.000000 8.000000
vt 3.083333 -2.283105
vt 3.750000 -0.970351
vt -4.083333 -2.096673
vt -4.750000 -2.156784
vt 3.083333 -2.283105
vt 3.750000 -0.970351
vt -4.083333 -2.096673
vt -4.750000 -2.156784
vt -1.000000 -2.000000
vt -2.000000 -3.000000
vt -4.000000 -4.000000
vt -0.500000 -2.000000
vt 4.000000 -3.000000
vt 3.083333 5.716895
vt 3.750000 6.029649
vt -4.083333 4.903327
vt -4.750000 5.843216
vt 4.000000 7.000000
vt 3.000000 6.000000
vt 2.000000 6.000000
vt -0.500000 4.000000
vt 0.000000 5.000000
vt -0.750000 5.000000
vt -1.500000 4.000000
vt -3.000000 1.500000
vt -3.750000 1.500000
vt -4.000000 1.250000
vt -0.500000 -2.000000
vt 2.000000 2.000000
vt 1.000000 1.000000
vt 2.000000 2.000000
vt 3.000000 4.000000
vt 2.000000 8.000000
vt -2.000000 8.000000
vt -4.000000 8.000000
vt 3.083333 5.716895
vt 3.750000 6.029649
vt -4.083333 4.903327
vt -4.750000 5.843216
vt -5.000000 -3.000000
vn 0.1207 0.4692 0.8748
vn 0.3991 0.5102 0.7618
vn 0.0425 0.6283 0.7768
vn 0.1076 0.4768 0.8724
vn -0.1966 0.6072 0.7698
vn -0.1363 0.6587 0.7400
vn -0.2039 0.6671 0.7165
vn -0.1994 0.6079 0.7686
vn -0.3395 0.6242 0.7037
vn -0.2861 0.6767 0.6784
vn -0.3479 0.6833 0.6419
vn -0.3423 0.6242 0.7023
vn -0.6355 0.5633 0.5281
vn -0.4938 0.6907 0.5284
vn -0.7289 0.6415 0.2391
vn -0.6470 0.5585 0.5191
vn 0.3078 -0.5222 -0.7953
vn 0.1967 -0.7628 -0.6160
vn 0.3331 0.3671 0.8685
vn 0.1871 0.6130 0.7676
vn 0.1722 0.6169 0.7680
vn 0.0066 0.5505 0.8348
vn -0.1593 0.6088 0.7771
vn -0.1666 0.6722 0.7214
vn -0.1696 0.6725 0.7204
vn -0.2242 0.6232 0.7492
vn -0.3064 0.6328 0.7111
vn -0.3096 0.6888 0.6555
vn -0.3123 0.6891 0.6539
vn -0.3710 0.6335 0.6791
vn -0.5297 0.6129 0.5863
vn -0.5708 0.7033 0.4237
vn -0.5806 0.7023 0.4118
vn -0.7951 0.4983 0.3458
vn 0.2370 -0.6894 -0.6845
vn 0.2733 -0.6107 -0.7432
vn -0.9604 0.2104 0.1824
vn -0.1182 -0.3834 0.9160
vn -0.1831 0.6506 0.7370
vn -0.0455 0.9654 -0.2568
vn 0.7967 0.3715 0.4767
vn 0.5667 -0.2257 0.7924
vn 0.6209 0.7796 -0.0817
vn -0.7429 -0.3458 0.5730
vn -0.6887 0.6595 -0.3010
usemtl base/pole_stone.002
s off
f 3/1/1 30/2/1 16/3/1
f 4/4/2 30/2/2 15/5/2
f 30/2/3 6/6/3 18/7/3
f 30/2/4 5/8/4 16/3/4
f 5/8/5 31/9/5 19/10/5
f 6/6/6 31/9/6 18/7/6
f 31/9/7 8/11/7 21/12/7
f 31/9/8 7/13/8 19/10/8
f 7/13/9 32/14/9 22/15/9
f 8/11/10 32/14/10 21/12/10
f 32/14/11 10/16/11 24/17/11
f 32/14/12 9/18/12 22/19/12
f 9/18/13 33/20/13 25/21/13
f 10/16/14 33/20/14 24/17/14
f 33/20/15 12/22/15 27/23/15
f 33/20/16 11/24/16 25/21/16
f 29/25/17 14/26/17 2/27/17
f 13/28/18 28/29/18 1/30/18
f 3/1/19 15/5/19 30/2/19
f 4/4/20 17/31/20 30/2/20
f 30/2/21 17/31/21 6/6/21
f 30/2/22 18/7/22 5/8/22
f 5/8/23 18/7/23 31/9/23
f 6/6/24 20/32/24 31/9/24
f 31/9/25 20/32/25 8/11/25
f 31/9/26 21/12/26 7/13/26
f 7/13/27 21/12/27 32/14/27
f 8/11/28 23/33/28 32/14/28
f 32/14/29 23/34/29 10/16/29
f 32/14/30 24/17/30 9/18/30
f 9/18/31 24/17/31 33/20/31
f 10/16/32 26/35/32 33/20/32
f 33/20/33 26/35/33 12/22/33
f 33/20/34 27/23/34 11/24/34
f 29/25/35 34/36/35 14/26/35
f 13/28/36 35/37/36 28/29/36
s 1
f 37/38/37 40/39/38 39/40/39
f 41/41/40 37/42/37 39/43/39
f 44/44/41 40/45/38 42/46/42
f 41/47/40 44/48/41 43/49/43
f 46/50/37 49/51/38 48/52/39
f 50/53/40 46/54/37 48/55/39
f 53/56/41 49/57/38 51/58/42
f 50/59/40 53/60/41 52/61/43
f 55/62/39 56/63/39 58/64/39
f 60/65/39 62/66/39 61/67/39
f 66/68/39 63/69/39 65/70/39
f 68/71/39 69/72/39 70/73/39
f 72/74/37 75/75/38 74/76/39
f 76/77/40 72/78/37 74/79/39
f 79/80/41 75/81/38 77/82/42
f 76/83/40 79/84/41 78/85/43
f 81/86/39 82/87/39 83/88/39
f 85/89/39 87/90/39 86/91/39
f 89/92/39 90/93/39 91/94/39
f 93/95/39 95/96/39 94/97/39
f 96/98/39 97/99/39 99/100/39
f 104/101/39 102/102/39 101/103/39
f 106/104/39 107/105/39 109/106/39
f 111/107/39 114/108/39 112/109/39
f 116/110/39 117/111/39 119/112/39
f 120/113/39 123/114/39 121/115/39
f 125/116/39 126/117/39 127/118/39
f 129/119/39 130/120/39 131/121/39
f 133/122/39 134/123/39 135/124/39
f 137/125/39 138/126/39 139/127/39
f 141/128/37 144/129/38 143/130/39
f 145/131/40 141/132/37 143/133/39
f 148/134/41 144/135/38 146/136/42
f 145/137/40 148/138/41 147/139/43
f 150/140/39 151/141/39 152/142/39
f 37/38/37 36/143/44 40/39/38
f 41/41/40 38/144/45 37/42/37
f 44/44/41 39/145/39 40/45/38
f 41/47/40 39/146/39 44/48/41
f 46/50/37 45/147/44 49/51/38
f 50/53/40 47/148/45 46/54/37
f 53/56/41 48/149/39 49/57/38
f 50/59/40 48/150/39 53/60/41
f 58/64/39 57/151/39 55/62/39
f 55/62/39 54/152/39 56/63/39
f 60/65/39 59/153/39 62/66/39
f 66/68/39 64/154/39 63/69/39
f 68/71/39 67/155/39 69/72/39
f 72/74/37 71/156/44 75/75/38
f 76/77/40 73/157/45 72/78/37
f 79/80/41 74/158/39 75/81/38
f 76/83/40 74/159/39 79/84/41
f 81/86/39 80/160/39 82/87/39
f 85/89/39 84/161/39 87/90/39
f 89/92/39 88/162/39 90/93/39
f 93/95/39 92/163/39 95/96/39
f 99/100/39 100/164/39 98/165/39
f 98/165/39 96/98/39 99/100/39
f 104/101/39 103/166/39 102/102/39
f 109/106/39 110/167/39 108/168/39
f 108/168/39 105/169/39 109/106/39
f 105/169/39 106/104/39 109/106/39
f 111/107/39 113/170/39 114/108/39
f 119/112/39 118/171/39 116/110/39
f 116/110/39 115/172/39 117/111/39
f 120/113/39 122/173/39 123/114/39
f 125/116/39 124/174/39 126/117/39
f 129/119/39 128/175/39 130/120/39
f 133/122/39 132/176/39 134/123/39
f 137/125/39 136/177/39 138/126/39
f 141/128/37 140/178/44 144/129/38
f 145/131/40 142/179/45 141/132/37
f 148/134/41 143/180/39 144/135/38
f 145/137/40 143/181/39 148/138/41
f 150/140/39 149/182/39 151/141/39
