# Blender v2.91.0 OBJ File: 'sign.blend'
# www.blender.org
mtllib paint.mtl
o paint_entity0_brush0
v -2.250000 0.875000 1.281250
v -2.250000 0.875000 1.531250
v -2.250000 3.750000 0.237501
v -2.250000 3.750000 -0.012499
v 0.250000 3.750000 0.237501
v 0.250000 0.875000 1.531250
v 0.250000 0.875000 1.281250
v 0.250000 3.750000 -0.012499
vt -0.641406 0.324219
vt -0.119531 1.761719
vt 0.005469 1.761719
vt -0.625000 1.437500
vt 0.625000 0.479167
vt 0.625000 1.437500
vt -1.125000 -0.878906
vt 0.125000 -0.753906
vt 0.125000 -0.878906
vt -1.125000 -0.107031
vt 0.125000 -0.232031
vt 0.125000 -0.107031
vt -1.125000 0.324219
vt 0.125000 1.761719
vt 0.125000 0.324219
vt -0.115625 1.761719
vt -0.637500 0.324219
vt 0.009375 1.761719
vt -0.766406 0.324219
vt -0.625000 0.479167
vt -1.125000 -0.753906
vt -1.125000 -0.232031
vt -1.125000 1.761719
vt -0.762500 0.324219
vn -1.0000 -0.0000 0.0000
vn 0.0000 0.4104 0.9119
vn 0.0000 -1.0000 0.0000
vn 0.0000 1.0000 0.0000
vn 0.0000 -0.4104 -0.9119
vn 1.0000 -0.0000 0.0000
usemtl base/floor_stone_reddish
s 1
f 1/1/1 3/2/1 4/3/1
f 3/4/2 6/5/2 5/6/2
f 2/7/3 7/8/3 6/9/3
f 4/10/4 5/11/4 8/12/4
f 1/13/5 8/14/5 7/15/5
f 5/16/6 7/17/6 8/18/6
f 1/1/1 2/19/1 3/2/1
f 3/4/2 2/20/2 6/5/2
f 2/7/3 1/21/3 7/8/3
f 4/10/4 3/22/4 5/11/4
f 1/13/5 4/23/5 8/14/5
f 5/16/6 6/24/6 7/17/6
