# Blender v2.91.0 OBJ File: 'table.blend'
# www.blender.org
mtllib legs.mtl
o legs_Cube.003
v -0.994862 -0.117556 -0.795653
v -0.895003 -0.122530 -0.805130
v -0.777455 -0.126156 -0.815721
v -1.012553 -0.120699 -0.694153
v -0.784485 -0.130083 -0.705710
v -1.026736 -0.122930 -0.576378
v -0.916854 -0.128634 -0.579021
v -0.790773 -0.132726 -0.582286
v -1.051221 -1.437658 -0.836870
v -0.951362 -1.437658 -0.846348
v -0.833813 -1.437658 -0.856939
v -1.068912 -1.362773 -0.735371
v -0.963135 -1.368231 -0.740603
v -0.840843 -1.372158 -0.746927
v -1.083094 -1.437658 -0.617595
v -0.973212 -1.437658 -0.620238
v -0.847131 -1.437658 -0.623504
v 0.777455 -0.128498 -0.815721
v 0.895003 -0.124871 -0.805130
v 0.994862 -0.119898 -0.795653
v 0.784484 -0.132425 -0.705710
v 0.830677 -1.441813 -0.854645
v 1.012553 -0.123040 -0.694153
v 0.790773 -0.135068 -0.582286
v 0.916853 -0.130975 -0.579021
v 1.026736 -0.125271 -0.576378
v 0.829696 -1.340950 -0.853927
v 0.947244 -1.337323 -0.843337
v 1.047103 -1.332350 -0.833859
v 0.836725 -1.344877 -0.743916
v 1.064794 -1.335492 -0.732359
v 0.843014 -1.347520 -0.620492
v 0.969094 -1.343427 -0.617227
v 1.078977 -1.337723 -0.614584
v 0.948225 -1.438187 -0.844054
v 1.048084 -1.440000 -0.834576
v 0.837706 -1.367642 -0.744633
v 0.959998 -1.363715 -0.738309
v 1.065775 -1.358258 -0.733077
v 0.843995 -1.444630 -0.621210
v 0.970075 -1.440537 -0.617945
v 1.079957 -1.434833 -0.615301
v 0.790773 -0.135068 0.582286
v 0.916853 -0.130975 0.579021
v 1.026736 -0.125271 0.576378
v 0.784484 -0.132425 0.705710
v 1.012553 -0.123040 0.694153
v 0.777455 -0.128498 0.815721
v 0.895003 -0.124871 0.805130
v 0.994862 -0.119898 0.795653
v 0.844124 -1.444630 0.621304
v 0.970204 -1.440537 0.618039
v 1.080086 -1.434833 0.615395
v 0.837835 -1.370636 0.744727
v 0.960127 -1.366709 0.738403
v 1.065904 -1.361251 0.733171
v 0.830805 -1.444075 0.854739
v 0.948354 -1.440449 0.844148
v 1.048213 -1.435476 0.834671
v -1.026736 -0.125271 0.576378
v -0.916853 -0.130975 0.579021
v -0.790773 -0.135068 0.582286
v -1.012554 -0.123040 0.694153
v -0.784484 -0.132425 0.705710
v -0.994862 -0.119898 0.795653
v -0.895003 -0.124871 0.805130
v -0.777455 -0.128498 0.815721
v -1.073856 -1.440000 0.610839
v -0.963974 -1.437498 0.613483
v -0.837894 -1.441590 0.616748
v -1.059674 -1.366805 0.728615
v -0.953897 -1.372262 0.733847
v -0.831605 -1.376189 0.740171
v -1.041983 -1.440000 0.830114
v -0.942124 -1.440000 0.839592
v -0.824575 -1.444075 0.850183
vt 0.122145 0.996000
vt 0.132795 0.056759
vt 0.122160 0.000072
vt 0.062316 0.004898
vt 0.073444 0.943828
vt 0.073244 0.002937
vt 0.288880 0.006250
vt 0.298263 0.996420
vt 0.298246 0.003642
vt 0.217692 0.985615
vt 0.227777 0.000021
vt 0.217726 0.000043
vt 0.343003 0.258177
vt 0.334675 0.311097
vt 0.343003 0.315462
vt 0.335046 0.257912
vt 0.325004 0.307847
vt 0.316513 0.261538
vt 0.325003 0.314993
vt 0.325003 0.257606
vt 0.306728 0.264282
vt 0.316251 0.314817
vt 0.082986 0.000000
vt 0.082986 0.993482
vt 0.141565 0.999997
vt 0.132576 0.997650
vt 0.227757 0.988683
vt 0.236537 0.000000
vt 0.306208 0.996534
vt 0.306208 0.000000
vt 0.325691 0.326194
vt 0.334742 0.336986
vt 0.345232 0.325649
vt 0.092208 0.997649
vt 0.082986 0.081546
vt 0.083172 1.000000
vt 0.020903 0.004906
vt 0.009764 0.921395
vt 0.020713 0.923359
vt 0.102677 0.995994
vt 0.092023 0.079195
vt 0.244770 0.003665
vt 0.236537 0.915256
vt 0.244526 0.918921
vt 0.102491 0.077540
vt 0.092019 0.061950
vt 0.253922 0.921558
vt 0.244770 0.995078
vt 0.254166 0.997714
vt 0.169716 0.076396
vt 0.161175 0.007359
vt 0.160938 0.080685
vt 0.000000 0.918453
vt 0.009761 0.938640
vt 0.009954 0.002942
vt 0.180017 0.989049
vt 0.169953 0.992120
vt 0.254166 0.006302
vt 0.161175 0.996408
vt 0.316235 0.190761
vt 0.306208 0.136997
vt 0.306931 0.193785
vt 0.324223 0.191882
vt 0.315886 0.133768
vt 0.325109 0.006817
vt 0.315020 0.062862
vt 0.325109 0.065826
vt 0.315319 0.003997
vt 0.306208 0.058664
vt 0.020903 0.996921
vt 0.236803 0.996537
vt 0.179780 0.073326
vt 0.169953 0.003071
vt 0.083199 0.000000
vt 0.262143 0.995656
vt 0.254166 0.006276
vt 0.254166 0.999309
vt 0.180017 0.989129
vt 0.190075 0.003083
vt 0.180017 0.000000
vt 0.271526 0.993033
vt 0.262143 0.002623
vt 0.041624 0.004905
vt 0.052769 0.940907
vt 0.052563 0.002941
vt 0.315006 0.068803
vt 0.325084 0.122580
vt 0.325084 0.065826
vt 0.306208 0.073013
vt 0.315309 0.125413
vt 0.306208 0.250012
vt 0.316347 0.196818
vt 0.307058 0.193785
vt 0.315877 0.253251
vt 0.324206 0.200826
vt 0.190075 0.992212
vt 0.198848 0.007382
vt 0.160938 0.996573
vt 0.152185 0.056257
vt 0.151975 0.994224
vt 0.062316 0.000000
vt 0.062316 0.996572
vt 0.141565 0.992571
vt 0.141581 0.000554
vt 0.280906 0.995691
vt 0.288880 0.002867
vt 0.280920 0.002965
vt 0.102677 0.004011
vt 0.113304 0.944522
vt 0.113130 0.002353
vt 0.020903 0.991652
vt 0.032017 0.051454
vt 0.020923 0.001944
vt 0.122145 0.000000
vt 0.122145 0.999995
vt 0.343053 0.130201
vt 0.334540 0.182408
vt 0.343053 0.186321
vt 0.334333 0.132285
vt 0.324735 0.179685
vt 0.333875 0.198165
vt 0.342195 0.249792
vt 0.342195 0.193785
vt 0.324206 0.201433
vt 0.334227 0.250070
vt 0.208914 0.004282
vt 0.217692 0.993007
vt 0.217692 0.000000
vt 0.271526 0.993064
vt 0.271538 0.000000
vt 0.198848 0.007344
vt 0.208937 0.991092
vt 0.041624 0.996567
vt 0.031855 0.993621
vt 0.062335 0.993403
vt 0.288910 0.996290
vt 0.325679 0.257606
vt 0.306208 0.314613
vt 0.141565 0.000000
vt 0.236537 0.992968
vt 0.335155 0.316353
vt 0.326348 0.316821
vt 0.325004 0.336791
vt 0.345232 0.336762
vt 0.344898 0.315462
vt 0.236781 0.000000
vt 0.102677 0.003979
vt 0.000200 0.994858
vt 0.000190 0.000000
vt 0.324223 0.129421
vt 0.306833 0.000000
vt 0.180017 0.000000
vt 0.271526 0.000000
vt 0.041640 0.996920
vt 0.306840 0.129421
vt 0.324206 0.257606
vt 0.198848 0.996511
vt 0.160938 0.000000
vt 0.288880 0.999348
vt 0.102689 0.999936
vt 0.324223 0.129421
vt 0.324933 0.253470
vt 0.198871 0.994154
vt 0.041624 0.000000
vn -0.9948 0.0455 -0.0909
vn 0.9977 -0.0469 0.0498
vn -0.0886 0.0350 -0.9955
vn 0.0259 -0.0327 0.9991
vn -0.0123 -0.8057 0.5923
vn 0.0015 -0.8358 0.5490
vn -0.0700 -0.8380 -0.5412
vn -0.0537 -0.8630 -0.5023
vn 0.9948 -0.0456 0.0907
vn -0.9842 0.0503 -0.1700
vn 0.0240 -0.0325 0.9992
vn -0.0927 0.0350 -0.9951
vn 0.0428 0.9985 0.0333
vn 0.9843 0.0478 -0.1701
vn -0.9978 -0.0446 0.0499
vn 0.9919 0.0465 -0.1186
vn 0.0927 0.0353 -0.9951
vn 0.0895 0.0080 -0.9960
vn -0.0237 -0.0076 0.9997
vn -0.9971 -0.0449 0.0621
vn -0.0248 -0.0326 0.9992
vn 0.0886 0.0352 -0.9954
vn -0.0224 -0.0325 0.9992
vn -0.0249 -0.8282 0.5599
vn -0.0698 -0.8119 0.5796
vn 0.0412 -0.8468 -0.5303
vn 0.0566 -0.8394 -0.5405
vn -0.9990 -0.0104 0.0444
vn 0.0946 0.0080 -0.9955
vn -0.0256 -0.0076 0.9996
vn 0.9837 0.0102 -0.1796
vn 0.0928 0.0333 0.9951
vn -0.0249 -0.0308 -0.9992
vn 0.0887 0.0331 0.9955
vn -0.9978 -0.0446 -0.0499
vn 0.0411 -0.8560 0.5153
vn 0.0567 -0.8489 0.5255
vn -0.0245 -0.8307 -0.5561
vn -0.0136 -0.8195 -0.5730
vn -0.0224 -0.0307 -0.9993
vn 0.9843 0.0478 0.1701
vn -0.9948 -0.0431 -0.0923
vn 0.9947 0.0433 0.0927
vn -0.0944 0.0295 0.9951
vn -0.9921 0.0409 0.1187
vn 0.9988 -0.0369 -0.0314
vn -0.9791 0.0402 0.1996
vn -0.0699 -0.8435 0.5326
vn -0.0529 -0.8761 0.4793
vn -0.0130 -0.8121 -0.5834
vn 0.0009 -0.8420 -0.5395
vn 0.0226 -0.0270 -0.9994
vn -0.0887 0.0293 0.9956
vn 0.0250 -0.0273 -0.9993
vn 0.9973 -0.0395 -0.0623
vn -0.9917 0.0489 -0.1185
vn 0.9987 -0.0440 0.0275
vn -0.0897 0.0351 -0.9954
vn 0.0248 -0.0325 0.9992
vn 0.0524 -0.8321 0.5522
vn 0.0462 -0.8570 0.5132
vn -0.0120 -0.8657 -0.5004
vn -0.0122 -0.8830 -0.4692
vn 0.9970 -0.0473 0.0620
vn -0.9774 0.0482 -0.2059
vn 0.0224 -0.0323 0.9992
vn -0.0944 0.0352 -0.9949
vn 0.0535 0.9978 0.0402
vn 0.0524 0.9983 0.0252
vn 0.0330 0.9992 0.0231
vn 0.0342 0.9987 0.0378
vn 0.0425 0.9987 0.0286
vn 0.9936 0.0109 -0.1126
vn -0.9975 -0.0102 0.0706
vn -0.0035 -0.8174 0.5761
vn 0.0092 -0.7796 0.6262
vn 0.0549 -0.8396 -0.5405
vn 0.0701 -0.8324 -0.5497
vn 0.0941 0.0075 -0.9955
vn -0.9988 -0.0415 -0.0260
vn 0.0544 -0.8491 0.5254
vn 0.0699 -0.8422 0.5346
vn -0.0033 -0.8201 -0.5722
vn 0.0126 -0.8082 -0.5888
vn 0.9779 0.0457 0.2039
vn -0.9971 -0.0449 -0.0621
vn 0.9919 0.0465 0.1186
vn -0.0930 0.0293 0.9952
vn -0.9946 0.0382 0.0961
vn 0.9980 -0.0392 -0.0500
vn -0.9845 0.0420 0.1703
vn 0.0086 -0.8794 0.4759
vn -0.0408 -0.8820 0.4695
vn 0.0515 -0.8383 -0.5427
vn 0.0179 -0.8504 -0.5259
vn 0.0247 -0.0272 -0.9993
vn -0.0888 0.0293 0.9956
vn 0.9955 -0.0379 -0.0870
usemtl Material
s off
f 6/1/1 12/2/1 15/3/1
f 8/4/2 14/5/2 5/6/2
f 3/7/3 10/8/3 2/9/3
f 8/10/4 16/11/4 17/12/4
f 9/13/5 13/14/5 12/15/5
f 10/16/6 14/17/6 13/14/6
f 13/18/7 15/19/7 12/20/7
f 14/21/8 16/22/8 13/18/8
f 3/23/9 14/5/9 11/24/9
f 1/25/10 12/2/10 4/26/10
f 7/27/11 15/28/11 16/11/11
f 2/9/12 9/29/12 1/30/12
f 4/31/13 7/32/13 5/33/13
f 23/34/14 29/35/14 20/36/14
f 24/37/15 30/38/15 32/39/15
f 26/40/16 31/41/16 23/34/16
f 19/42/17 29/43/17 28/44/17
f 34/45/16 39/46/16 31/41/16
f 27/47/18 35/48/18 22/49/18
f 33/50/19 42/51/19 34/52/19
f 27/53/20 37/54/20 30/38/20
f 21/55/20 27/53/20 30/38/20
f 24/56/21 33/50/21 25/57/21
f 18/58/22 28/44/22 27/47/22
f 25/57/23 34/52/23 26/59/23
f 35/60/24 37/61/24 22/62/24
f 36/63/25 38/64/25 35/60/25
f 37/65/26 41/66/26 40/67/26
f 38/68/27 42/69/27 41/66/27
f 32/39/28 37/54/28 40/70/28
f 28/44/29 36/71/29 35/48/29
f 32/72/30 41/73/30 33/50/30
f 29/35/31 39/46/31 36/74/31
f 49/75/32 59/76/32 50/77/32
f 43/78/33 52/79/33 51/80/33
f 48/81/34 58/82/34 49/75/34
f 43/83/35 54/84/35 46/85/35
f 52/86/36 54/87/36 51/88/36
f 53/89/37 55/90/37 52/86/37
f 54/91/38 58/92/38 57/93/38
f 55/94/39 59/95/39 58/92/39
f 44/96/40 53/97/40 52/79/40
f 50/98/41 56/99/41 47/100/41
f 48/101/42 54/84/42 57/102/42
f 45/103/43 56/99/43 53/104/43
f 66/105/44 74/106/44 75/107/44
f 60/108/45 71/109/45 63/110/45
f 62/111/46 73/112/46 70/113/46
f 65/114/47 71/109/47 74/115/47
f 68/116/48 72/117/48 71/118/48
f 69/119/49 73/120/49 72/117/49
f 72/121/50 74/122/50 71/123/50
f 73/124/51 75/125/51 72/121/51
f 61/126/52 68/127/52 60/128/52
f 67/129/53 75/107/53 76/130/53
f 62/131/54 69/132/54 61/126/54
f 67/133/55 73/112/55 64/134/55
f 6/1/56 4/26/56 12/2/56
f 8/4/57 17/135/57 14/5/57
f 3/7/58 11/136/58 10/8/58
f 8/10/59 7/27/59 16/11/59
f 9/13/60 10/16/60 13/14/60
f 10/16/61 11/137/61 14/17/61
f 13/18/62 16/22/62 15/19/62
f 14/21/63 17/138/63 16/22/63
f 3/23/64 5/6/64 14/5/64
f 1/25/65 9/139/65 12/2/65
f 7/27/66 6/140/66 15/28/66
f 2/9/67 10/8/67 9/29/67
f 2/141/68 1/142/68 4/31/68
f 4/31/69 6/143/69 7/32/69
f 7/32/70 8/144/70 5/33/70
f 5/33/71 3/145/71 2/141/71
f 2/141/72 4/31/72 5/33/72
f 23/34/14 31/41/14 29/35/14
f 24/37/15 21/55/15 30/38/15
f 26/40/16 34/45/16 31/41/16
f 19/42/17 20/146/17 29/43/17
f 34/45/73 42/147/73 39/46/73
f 27/47/18 28/44/18 35/48/18
f 33/50/19 41/73/19 42/51/19
f 27/53/74 22/148/74 37/54/74
f 21/55/20 18/149/20 27/53/20
f 24/56/21 32/72/21 33/50/21
f 18/58/22 19/42/22 28/44/22
f 25/57/23 33/50/23 34/52/23
f 35/60/75 38/64/75 37/61/75
f 36/63/76 39/150/76 38/64/76
f 37/65/77 38/68/77 41/66/77
f 38/68/78 39/151/78 42/69/78
f 32/39/15 30/38/15 37/54/15
f 28/44/79 29/43/79 36/71/79
f 32/72/30 40/152/30 41/73/30
f 29/35/14 31/41/14 39/46/14
f 49/75/32 58/82/32 59/76/32
f 43/78/33 44/96/33 52/79/33
f 48/81/34 57/153/34 58/82/34
f 43/83/80 51/154/80 54/84/80
f 52/86/81 55/90/81 54/87/81
f 53/89/82 56/155/82 55/90/82
f 54/91/83 55/94/83 58/92/83
f 55/94/84 56/156/84 59/95/84
f 44/96/40 45/157/40 53/97/40
f 50/98/85 59/158/85 56/99/85
f 48/101/86 46/85/86 54/84/86
f 45/103/87 47/100/87 56/99/87
f 66/105/88 65/159/88 74/106/88
f 60/108/89 68/160/89 71/109/89
f 62/111/90 64/134/90 73/112/90
f 65/114/91 63/110/91 71/109/91
f 68/116/92 69/119/92 72/117/92
f 69/119/93 70/161/93 73/120/93
f 72/121/94 75/125/94 74/122/94
f 73/124/95 76/162/95 75/125/95
f 61/126/96 69/132/96 68/127/96
f 67/129/97 66/105/97 75/107/97
f 62/131/54 70/163/54 69/132/54
f 67/133/98 76/164/98 73/112/98
